<?xml version="1.0" standalone="no"?>
<!DOCTYPE svg PUBLIC "-//W3C//DTD SVG 20010904//EN"
 "http://www.w3.org/TR/2001/REC-SVG-20010904/DTD/svg10.dtd">
<svg version="1.0" xmlns="http://www.w3.org/2000/svg"
 width="3840.000000pt" height="2160.000000pt" viewBox="0 0 3840.000000 2160.000000"
 preserveAspectRatio="xMidYMid meet">

<g transform="translate(0.000000,2160.000000) scale(0.100000,-0.100000)"
fill="#000000" stroke="none">
<path d="M24430 13759 c-7543 -2012 -13836 -3688 -13985 -3723 -935 -225
-1712 -327 -2490 -327 -293 -1 -340 1 -590 22 -731 61 -1368 271 -1829 602
-284 204 -550 464 -743 727 -344 468 -547 1036 -602 1685 -16 176 -13 594 4
789 69 781 294 1595 701 2531 149 343 488 997 668 1290 24 39 -24 -11 -367
-385 -2140 -2330 -3234 -3778 -3996 -5290 -580 -1149 -900 -2194 -981 -3205
-14 -168 -14 -614 0 -775 57 -680 240 -1230 576 -1735 553 -832 1323 -1367
2333 -1624 338 -86 696 -139 1096 -161 150 -8 760 -5 815 4 14 2 75 7 135 11
128 7 441 39 600 61 1144 156 2415 508 3844 1063 378 148 544 217 3480 1463
1543 654 4050 1718 5571 2363 7082 3004 13147 5577 16165 6857 1815 770 3309
1404 3320 1408 12 5 14 9 5 9 -8 -1 -6187 -1647 -13730 -3660z"/>
</g>
</svg>
