<?xml version="1.0" standalone="no"?>
<!DOCTYPE svg PUBLIC "-//W3C//DTD SVG 20010904//EN"
 "http://www.w3.org/TR/2001/REC-SVG-20010904/DTD/svg10.dtd">
<svg version="1.0" xmlns="http://www.w3.org/2000/svg"
 width="400.000000pt" height="400.000000pt" viewBox="0 0 400.000000 400.000000"
 preserveAspectRatio="xMidYMid meet">

<g transform="translate(0.000000,400.000000) scale(0.100000,-0.100000)"
fill="#000000" stroke="none">
<path d="M3474 3270 c-133 -69 -253 -195 -333 -350 -21 -41 -66 -140 -100
-220 -68 -163 -107 -226 -187 -304 -68 -68 -125 -102 -206 -122 -120 -31 -287
10 -472 117 -116 66 -159 98 -351 264 -261 224 -429 343 -610 430 -100 48
-248 95 -300 95 -30 0 -37 6 -65 55 -17 30 -37 55 -43 55 -6 0 -28 -17 -50
-37 l-38 -38 -35 40 c-39 46 -36 47 -94 -47 -18 -30 -44 -55 -69 -68 -34 -17
-43 -28 -52 -65 -7 -30 -22 -54 -43 -71 -17 -15 -35 -33 -39 -41 -9 -15 9 -73
23 -73 5 0 32 -22 62 -48 73 -67 87 -73 134 -61 46 13 106 7 139 -15 20 -13
25 -25 25 -56 0 -55 -19 -71 -72 -58 -24 5 -82 8 -130 5 -139 -7 -221 -57
-235 -141 -10 -65 54 -136 123 -136 37 0 49 12 61 59 15 59 27 59 164 -2 157
-70 234 -91 321 -84 69 4 133 33 172 76 11 12 23 21 28 21 5 0 52 -41 106 -92
53 -50 123 -111 155 -134 127 -94 302 -151 492 -160 195 -9 263 -28 352 -101
59 -48 97 -106 149 -231 25 -59 61 -134 79 -168 72 -128 210 -288 335 -387 36
-28 68 -56 72 -62 4 -5 8 -52 8 -104 0 -119 21 -197 67 -250 36 -42 89 -66
133 -59 24 3 25 7 26 73 0 39 6 93 14 121 12 48 12 52 -14 93 -36 57 -56 115
-56 163 0 52 -10 69 -69 112 -30 21 -62 56 -79 86 -27 47 -29 60 -36 200 -12
273 -56 452 -134 545 l-25 30 39 30 c22 16 68 59 104 95 60 59 71 78 129 210
144 330 198 396 420 510 123 63 172 108 190 173 38 134 -52 195 -185 127z"/>
</g>
</svg>
